<?xml version="1.0" encoding="UTF-8" standalone="no"?>
<!DOCTYPE svg PUBLIC "-//W3C//DTD SVG 1.1//EN" "http://www.w3.org/Graphics/SVG/1.1/DTD/svg11.dtd">
<svg xmlns="http://www.w3.org/2000/svg" version="1.1" viewBox="0 0 691 711">
<g stroke-width="2.00" fill="none" stroke-linecap="butt">
<path stroke="#949494" vector-effect="non-scaling-stroke" d="
  M 570.25 1.01
  L 570.29 1.97"
/>
<path stroke="#808080" vector-effect="non-scaling-stroke" d="
  M 570.29 1.97
  Q 419.23 2.03 268.17 1.99
  C 262.37 1.99 256.40 2.09 250.43 1.14
  C 247.80 0.73 245.24 1.93 242.50 1.96
  Q 216.71 2.21 185.35 1.78
  C 180.77 1.72 173.89 0.90 167.90 1.51
  A 1.00 0.99 -2.9 0 0 167.00 2.50
  L 166.98 118.04"
/>
<path stroke="#151515" vector-effect="non-scaling-stroke" d="
  M 570.29 1.97
  L 575.50 1.46"
/>
<path stroke="#808080" vector-effect="non-scaling-stroke" d="
  M 575.50 1.46
  Q 576.19 2.00 576.75 2.00
  Q 615.59 1.99 654.11 2.01
  A 1.00 1.00 0.0 0 1 655.11 3.04
  Q 654.60 17.66 655.75 31.29"
/>
<path stroke="#5e5e5e" vector-effect="non-scaling-stroke" d="
  M 655.75 31.29
  L 655.79 38.75"
/>
<path stroke="#484848" vector-effect="non-scaling-stroke" d="
  M 655.79 38.75
  C 655.84 248.54 656.58 458.39 655.69 668.18
  A 1.01 1.01 0.0 0 1 654.85 669.16
  L 653.49 669.38"
/>
<path stroke="#151515" vector-effect="non-scaling-stroke" d="
  M 653.49 669.38
  Q 648.04 670.11 642.57 669.50
  C 636.92 668.88 630.51 669.14 624.56 669.33
  C 614.51 669.66 599.87 669.05 584.16 669.48
  C 577.66 669.67 571.67 668.55 564.25 669.29"
/>
<path stroke="#484848" vector-effect="non-scaling-stroke" d="
  M 564.25 669.29
  C 557.88 668.97 549.91 669.23 545.23 669.23
  Q 355.26 669.37 306.56 669.19
  Q 236.64 668.94 205.01 669.26
  C 202.16 669.29 198.34 668.68 194.96 669.00"
/>
<path stroke="#808080" vector-effect="non-scaling-stroke" d="
  M 194.96 669.00
  Q 193.77 668.70 192.75 669.21"
/>
<path stroke="#808080" vector-effect="non-scaling-stroke" d="
  M 166.02 667.80
  L 166.39 667.78
  A 0.65 0.64 -1.9 0 0 167.00 667.14
  Q 167.01 585.17 166.99 503.21
  C 166.99 502.86 166.67 500.78 165.97 502.22"
/>
<path stroke="#151515" vector-effect="non-scaling-stroke" d="
  M 161.00 507.79
  Q 159.23 508.39 159.29 510.25"
/>
<path stroke="#151515" vector-effect="non-scaling-stroke" d="
  M 150.00 522.79
  Q 148.31 523.12 148.50 524.79"
/>
<path stroke="#151515" vector-effect="non-scaling-stroke" d="
  M 147.25 526.54
  Q 146.65 526.36 146.33 526.83
  Q 144.58 529.31 143.10 531.98"
/>
<path stroke="#151515" vector-effect="non-scaling-stroke" d="
  M 136.25 541.54
  Q 134.41 542.07 134.29 544.00"
/>
<path stroke="#151515" vector-effect="non-scaling-stroke" d="
  M 133.25 545.54
  Q 131.42 545.97 131.50 547.79"
/>
<path stroke="#151515" vector-effect="non-scaling-stroke" d="
  M 122.21 560.75
  Q 120.38 561.01 120.50 562.79"
/>
<path stroke="#151515" vector-effect="non-scaling-stroke" d="
  M 119.21 564.75
  Q 117.26 565.20 117.29 567.25"
/>
<path stroke="#151515" vector-effect="non-scaling-stroke" d="
  M 108.00 579.79
  Q 106.35 580.33 106.46 582.00"
/>
<path stroke="#151515" vector-effect="non-scaling-stroke" d="
  M 96.96 582.50
  Q 95.94 580.53 93.75 580.29"
/>
<path stroke="#151515" vector-effect="non-scaling-stroke" d="
  M 92.46 579.25
  Q 91.78 577.33 89.75 577.29"
/>
<path stroke="#151515" vector-effect="non-scaling-stroke" d="
  M 88.46 576.25
  Q 87.91 574.42 86.00 574.54"
/>
<path stroke="#151515" vector-effect="non-scaling-stroke" d="
  M 80.05 569.90
  C 78.86 568.88 72.09 563.03 71.00 563.29"
/>
<path stroke="#151515" vector-effect="non-scaling-stroke" d="
  M 69.46 562.25
  Q 68.91 560.42 67.00 560.54"
/>
<path stroke="#151515" vector-effect="non-scaling-stroke" d="
  M 62.00 556.71
  Q 61.42 554.91 59.50 554.79"
/>
<path stroke="#151515" vector-effect="non-scaling-stroke" d="
  M 59.19 553.63
  Q 62.27 550.65 64.08 546.74"
/>
<path stroke="#151515" vector-effect="non-scaling-stroke" d="
  M 70.57 537.77
  Q 75.16 532.78 78.92 527.14
  A 0.27 0.27 0.0 0 0 78.88 526.81
  Q 78.72 526.64 78.54 526.75"
/>
<path stroke="#151515" vector-effect="non-scaling-stroke" d="
  M 79.50 525.71
  L 79.75 525.75
  A 0.33 0.33 0.0 0 0 80.06 525.63
  Q 85.03 519.51 89.11 512.77"
/>
<path stroke="#151515" vector-effect="non-scaling-stroke" d="
  M 96.57 502.33
  Q 97.05 502.61 97.18 502.43
  Q 107.31 488.77 117.29 475.00"
/>
<path stroke="#151515" vector-effect="non-scaling-stroke" d="
  M 117.29 475.00
  Q 120.86 470.82 123.59 466.08"
/>
<path stroke="#151515" vector-effect="non-scaling-stroke" d="
  M 128.09 460.04
  L 165.46 409.75"
/>
<path stroke="#484848" vector-effect="non-scaling-stroke" d="
  M 165.46 409.75
  L 166.46 407.75"
/>
<path stroke="#808080" vector-effect="non-scaling-stroke" d="
  M 166.46 407.75
  Q 167.21 404.49 166.96 401.29
  A 1.00 0.99 88.1 0 0 165.98 400.37
  Q 120.23 399.68 74.50 400.26
  Q 74.18 400.27 74.19 400.91"
/>
<path stroke="#808080" vector-effect="non-scaling-stroke" d="
  M 1.25 363.96
  Q 1.28 363.69 1.22 363.45
  Q 1.00 362.62 1.00 362.50
  L 1.00 120.75
  Q 1.00 120.51 1.21 119.81
  Q 1.32 119.45 1.25 119.04"
/>
<path stroke="#808080" vector-effect="non-scaling-stroke" d="
  M 179.09 118.96
  C 201.30 119.70 223.78 119.34 246.00 119.21"
/>
<path stroke="#151515" vector-effect="non-scaling-stroke" d="
  M 246.00 119.21
  Q 248.89 118.54 251.98 118.90"
/>
<path stroke="#808080" vector-effect="non-scaling-stroke" d="
  M 251.98 118.90
  L 398.00 119.02
  A 1.00 1.00 0.0 0 1 399.00 120.02
  L 399.00 181.00
  A 1.00 1.00 0.0 0 0 400.00 182.00
  L 424.25 182.00
  A 1.00 1.00 0.0 0 1 425.25 183.00
  L 425.25 332.25
  A 1.00 1.00 0.0 0 1 424.25 333.25
  L 400.00 333.25
  A 1.00 1.00 0.0 0 0 399.00 334.25
  L 399.00 363.00
  A 1.00 1.00 0.0 0 1 398.00 364.00
  L 301.50 364.00
  A 1.00 1.00 0.0 0 0 300.50 365.00
  L 300.50 399.47
  A 1.00 1.00 0.0 0 1 299.50 400.47
  L 253.03 400.69
  A 1.00 1.00 0.0 0 0 252.03 401.68
  L 251.97 414.14
  A 1.01 0.99 24.0 0 0 252.24 414.82
  L 370.30 541.65
  A 1.00 1.00 0.0 0 1 370.25 543.06
  L 331.39 579.21
  A 1.01 1.00 -42.8 0 1 329.97 579.16
  Q 293.01 539.43 256.05 499.70
  Q 254.91 498.48 253.79 497.40
  Q 252.09 495.76 252.09 498.12
  L 252.07 658.98
  A 0.72 0.61 34.2 0 0 252.16 659.31
  Q 252.35 659.63 252.25 660.00"
/>
<path stroke="#151515" vector-effect="non-scaling-stroke" d="
  M 252.25 660.00
  Q 245.24 662.39 245.70 656.57
  C 246.27 649.25 245.97 641.79 245.96 634.45
  Q 245.96 634.20 245.85 633.98
  Q 243.71 630.00 243.03 625.63
  A 1.02 1.01 19.4 0 0 242.78 625.12
  C 240.27 622.35 236.36 618.66 232.38 618.58
  C 221.85 618.37 210.45 619.47 200.08 618.14
  C 192.27 617.15 183.83 620.92 180.91 628.49
  Q 179.68 631.69 179.66 638.60
  C 179.65 645.48 180.14 652.66 179.63 659.49
  A 1.00 0.99 88.6 0 1 178.76 660.41
  Q 175.91 660.78 171.26 660.49
  Q 169.55 660.39 169.94 662.56"
/>
<path stroke="#808080" vector-effect="non-scaling-stroke" d="
  M 169.94 662.56
  Q 170.65 665.87 174.25 664.21"
/>
<path stroke="#151515" vector-effect="non-scaling-stroke" d="
  M 174.25 664.21
  L 251.80 664.44
  A 0.41 0.35 22.5 0 0 252.04 664.36
  L 252.25 664.21"
/>
<path stroke="#484848" vector-effect="non-scaling-stroke" d="
  M 252.25 664.21
  C 253.11 664.87 290.50 664.48 290.92 664.48
  C 375.54 664.52 460.33 665.43 544.94 664.25
  Q 555.42 664.11 566.58 664.64
  Q 569.79 664.79 569.55 662.19
  L 569.21 658.50"
/>
<path stroke="#808080" vector-effect="non-scaling-stroke" d="
  M 569.21 658.50
  L 569.28 517.01"
/>
<path stroke="#000000" vector-effect="non-scaling-stroke" d="
  M 569.28 517.01
  Q 570.58 504.06 570.95 516.53
  A 0.45 0.12 89.7 0 0 571.06 516.94
  L 571.33 517.03
  A 0.42 0.40 5.7 0 1 571.62 517.37
  L 572.24 522.89
  A 1.00 0.99 17.9 0 0 572.58 523.54
  Q 574.39 525.10 574.86 527.41
  A 1.02 1.01 7.7 0 0 575.39 528.10
  C 577.40 529.11 576.81 521.82 580.02 526.36
  A 0.99 0.99 0.0 0 1 580.20 526.96
  L 580.04 534.25"
/>
<path stroke="#151515" vector-effect="non-scaling-stroke" d="
  M 580.04 534.25
  Q 580.11 549.06 580.32 563.88
  C 580.42 571.04 579.94 580.01 586.28 583.30
  A 1.03 1.00 88.5 0 1 586.70 583.71
  Q 587.53 585.27 589.47 585.46"
/>
<path stroke="#808080" vector-effect="non-scaling-stroke" d="
  M 589.47 585.46
  Q 616.00 586.65 632.44 585.95
  Q 640.33 585.62 643.73 577.51"
/>
<path stroke="#151515" vector-effect="non-scaling-stroke" d="
  M 643.73 577.51
  Q 646.52 572.73 646.51 570.50
  Q 646.49 549.88 646.71 529.25"
/>
<path stroke="#000000" vector-effect="non-scaling-stroke" d="
  M 646.71 529.25
  L 646.79 525.69
  A 0.99 0.99 0.0 0 1 648.20 524.81
  Q 649.75 525.52 650.36 526.87
  Q 651.24 528.87 651.86 526.77
  Q 651.94 526.47 651.94 526.25
  Q 652.08 477.99 651.75 429.73
  C 651.73 426.96 652.18 423.63 652.14 420.56
  C 651.79 397.85 652.36 375.19 652.18 352.49
  Q 652.07 339.56 652.07 339.52
  Q 652.10 332.33 651.99 325.14
  Q 651.79 312.07 651.46 325.14
  Q 651.37 328.76 651.56 332.41
  A 0.64 0.61 -14.2 0 1 651.18 333.02
  C 648.93 334.04 650.26 326.26 650.44 325.91
  A 1.03 1.01 52.4 0 0 650.52 325.26
  Q 649.88 322.28 648.95 321.63
  Q 647.62 320.69 647.70 322.32
  Q 647.90 326.49 646.38 330.29"
/>
<path stroke="#808080" vector-effect="non-scaling-stroke" d="
  M 646.38 330.29
  L 646.42 319.04"
/>
<path stroke="#151515" vector-effect="non-scaling-stroke" d="
  M 646.42 319.04
  Q 648.85 310.44 644.19 303.24
  C 643.16 301.65 641.30 300.02 640.04 298.23
  A 1.05 0.99 -6.3 0 0 639.56 297.87
  L 633.70 295.76
  A 1.07 1.06 -41.9 0 0 633.11 295.73
  C 627.45 297.19 622.37 295.59 618.00 297.04"
/>
<path stroke="#808080" vector-effect="non-scaling-stroke" d="
  M 618.00 297.04
  L 596.75 297.21"
/>
<path stroke="#151515" vector-effect="non-scaling-stroke" d="
  M 596.75 297.21
  Q 596.94 295.53 595.57 294.61
  A 1.04 1.03 -33.4 0 0 594.83 294.46
  Q 591.57 295.07 589.11 297.35
  A 1.04 0.98 20.0 0 1 588.51 297.61
  C 585.13 297.87 583.91 300.85 582.00 304.04"
/>
<path stroke="#000000" vector-effect="non-scaling-stroke" d="
  M 582.00 304.04
  Q 579.78 303.73 579.30 305.93
  A 1.00 0.99 5.8 0 1 578.34 306.71
  Q 576.26 306.74 574.68 308.14
  A 1.00 1.00 0.0 0 1 573.28 308.06
  Q 572.59 307.30 572.17 306.37
  Q 571.39 304.59 570.70 306.41
  Q 570.38 307.22 570.97 307.47
  A 0.64 0.63 -71.7 0 1 571.34 308.21
  L 571.21 308.74
  Q 570.13 313.22 569.64 308.64
  L 569.28 305.25"
/>
<path stroke="#808080" vector-effect="non-scaling-stroke" d="
  M 569.28 305.25
  L 569.29 193.75"
/>
<path stroke="#151515" vector-effect="non-scaling-stroke" d="
  M 569.29 193.75
  Q 569.50 193.71 569.70 193.70
  A 1.00 0.99 89.2 0 1 570.73 194.71
  Q 570.72 196.06 571.29 195.40
  A 0.81 0.81 0.0 0 1 572.37 195.28
  Q 574.25 196.66 576.53 196.00
  A 1.00 1.00 0.0 0 1 577.80 196.90
  Q 578.00 200.02 580.94 201.70"
/>
<path stroke="#808080" vector-effect="non-scaling-stroke" d="
  M 580.94 201.70
  C 579.65 210.39 580.20 221.63 580.27 238.24
  C 580.31 246.37 581.52 257.37 590.35 260.98
  Q 592.87 262.01 598.30 262.01
  Q 613.47 262.02 628.64 261.97
  C 645.95 261.91 646.89 247.39 646.76 234.12
  C 646.66 223.28 647.07 213.39 646.25 203.04"
/>
<path stroke="#151515" vector-effect="non-scaling-stroke" d="
  M 646.25 203.04
  L 648.64 198.61
  A 1.00 1.00 0.0 0 1 649.38 198.10
  L 650.38 197.96
  A 0.99 0.98 -87.4 0 0 651.21 197.19
  Q 652.40 192.02 652.06 185.50
  C 651.48 174.35 652.26 159.04 652.20 147.08
  Q 651.84 77.47 652.31 7.30
  A 1.01 1.01 0.0 0 0 651.31 6.29
  L 646.54 6.25"
/>
<path stroke="#808080" vector-effect="non-scaling-stroke" d="
  M 646.54 6.25
  L 580.75 6.04"
/>
<path stroke="#151515" vector-effect="non-scaling-stroke" d="
  M 580.75 6.04
  Q 575.38 6.69 570.00 6.05"
/>
<path stroke="#808080" vector-effect="non-scaling-stroke" d="
  M 570.00 6.05
  L 252.04 6.00"
/>
<path stroke="#151515" vector-effect="non-scaling-stroke" d="
  M 252.04 6.00
  L 246.00 6.29"
/>
<path stroke="#808080" vector-effect="non-scaling-stroke" d="
  M 246.00 6.29
  Q 212.73 5.59 179.46 6.25"
/>
<path stroke="#151515" vector-effect="non-scaling-stroke" d="
  M 179.46 6.25
  Q 175.27 5.42 171.13 6.43
  A 0.99 0.98 84.6 0 0 170.37 7.35
  Q 169.92 16.54 170.02 25.73
  C 170.36 55.97 170.15 86.21 170.30 116.46
  A 1.04 0.97 -27.6 0 1 170.08 117.08
  Q 169.89 117.32 169.82 117.59
  A 0.80 0.80 0.0 0 0 170.56 118.60
  L 179.09 118.96"
/>
<path stroke="#949494" vector-effect="non-scaling-stroke" d="
  M 179.46 6.25
  L 179.67 25.69
  A 1.03 1.01 -61.8 0 0 179.83 26.24
  C 181.38 28.58 181.76 31.40 183.14 33.44
  Q 185.42 36.80 188.18 38.84
  Q 190.10 40.26 192.50 40.26
  Q 210.29 40.23 228.10 40.27
  Q 234.03 40.28 236.72 38.96
  C 247.95 33.41 245.99 15.40 246.00 6.29"
/>
<path stroke="#949494" vector-effect="non-scaling-stroke" d="
  M 252.04 6.00
  L 251.98 118.90"
/>
<path stroke="#949494" vector-effect="non-scaling-stroke" d="
  M 246.00 119.21
  Q 246.04 107.56 245.97 95.94
  C 245.91 85.38 243.01 74.23 230.12 74.24
  Q 213.22 74.25 196.30 74.25
  C 183.38 74.25 179.15 83.56 179.25 95.10
  Q 179.36 106.88 179.09 118.96"
/>
<path stroke="#949494" vector-effect="non-scaling-stroke" d="
  M 570.00 6.05
  C 569.93 24.75 569.32 43.14 569.29 61.69
  Q 569.18 127.72 569.29 193.75"
/>
<path stroke="#808080" vector-effect="non-scaling-stroke" d="
  M 569.28 305.25
  L 569.28 517.01"
/>
<path stroke="#c8c8c8" vector-effect="non-scaling-stroke" d="
  M 569.21 658.50
  L 568.98 659.23
  A 1.01 0.99 -81.2 0 1 568.03 659.94
  L 252.25 660.00"
/>
<path stroke="#151515" vector-effect="non-scaling-stroke" d="
  M 646.71 529.25
  Q 646.01 523.39 642.87 518.61
  Q 641.07 515.87 638.08 514.57
  Q 633.57 512.61 628.50 512.58
  C 619.81 512.51 593.46 510.19 587.53 516.74
  C 585.47 519.00 583.37 520.71 582.25 523.48
  Q 580.19 528.58 580.04 534.25"
/>
<path stroke="#5d5d5d" vector-effect="non-scaling-stroke" d="
  M 252.25 660.00
  L 252.25 664.21"
/>
<path stroke="#949494" vector-effect="non-scaling-stroke" d="
  M 174.25 664.21
  Q 172.89 661.83 169.94 662.56"
/>
<path stroke="#949494" vector-effect="non-scaling-stroke" d="
  M 580.75 6.04
  Q 579.12 19.16 580.13 26.83
  C 580.92 32.85 584.61 42.62 590.79 44.48
  Q 593.04 45.16 597.77 44.99
  C 607.66 44.64 618.70 44.49 624.44 44.84
  Q 633.35 45.38 635.76 44.50
  C 649.00 39.64 646.98 19.66 646.54 6.25"
/>
<path stroke="#949494" vector-effect="non-scaling-stroke" d="
  M 646.25 203.04
  Q 644.73 195.04 640.34 190.91
  Q 637.81 188.52 634.32 188.51
  Q 613.88 188.48 593.50 188.60
  C 585.61 188.64 582.81 195.22 580.94 201.70"
/>
<path stroke="#808080" vector-effect="non-scaling-stroke" d="
  M 646.38 330.29
  Q 646.21 340.36 645.97 350.49
  C 645.67 362.69 641.48 369.59 628.56 370.00
  Q 611.32 370.54 594.06 370.15
  Q 592.89 370.13 588.81 368.12
  C 583.49 365.49 580.95 357.29 580.75 351.99
  Q 580.45 344.03 580.93 317.39"
/>
<path stroke="#949494" vector-effect="non-scaling-stroke" d="
  M 643.73 577.51
  Q 645.79 555.21 644.78 532.82
  C 644.42 524.71 641.90 516.56 632.43 516.31
  Q 613.69 515.81 594.94 515.86
  C 585.96 515.89 581.99 524.91 582.00 532.62
  Q 582.01 549.93 581.98 567.25
  Q 581.97 572.16 584.39 579.89
  A 1.01 1.01 0.0 0 0 584.77 580.42
  Q 587.35 582.22 589.47 585.46"
/>
<path stroke="#949494" vector-effect="non-scaling-stroke" d="
  M 596.75 297.21
  Q 579.53 299.11 580.93 317.39"
/>
<path stroke="#151515" vector-effect="non-scaling-stroke" d="
  M 580.93 317.39
  Q 578.81 313.46 580.03 309.51
  Q 580.89 306.74 582.00 304.04"
/>
<path stroke="#949494" vector-effect="non-scaling-stroke" d="
  M 646.42 319.04
  C 646.17 311.10 643.95 298.73 634.25 297.50
  Q 629.12 296.85 618.00 297.04"
/>
<path stroke="#808080" vector-effect="non-scaling-stroke" d="
  M 189.01 472.36
  Q 192.80 472.96 196.50 472.96
  Q 213.51 472.95 229.00 473.05
  Q 231.31 473.07 229.74 471.37
  L 207.15 447.06
  A 1.00 1.00 0.0 0 0 205.61 447.15
  L 188.36 470.79
  A 1.00 0.99 -67.5 0 0 189.01 472.36"
/>
<path stroke="#808080" vector-effect="non-scaling-stroke" d="
  M 189.46 580.89
  C 204.80 582.20 220.87 581.34 236.29 580.81"
/>
<path stroke="#151515" vector-effect="non-scaling-stroke" d="
  M 236.29 580.81
  Q 238.02 581.58 239.68 580.44
  Q 242.13 578.76 242.53 577.75
  C 244.11 573.67 246.57 569.78 246.27 565.04
  Q 245.96 560.18 245.96 559.34
  Q 246.07 541.25 245.57 523.19
  A 0.94 0.92 26.9 0 0 245.38 522.63
  Q 243.79 520.43 244.31 517.94
  Q 244.78 515.66 242.32 514.70
  Q 240.50 513.98 240.12 511.99
  A 1.01 0.99 -79.0 0 0 239.70 511.35
  C 233.09 506.91 225.06 507.23 216.49 507.89
  C 212.56 508.20 205.50 508.15 200.00 509.49
  C 197.51 510.10 193.69 508.64 190.80 509.76
  C 188.80 510.54 187.46 512.18 185.63 513.24
  C 182.27 515.18 178.91 520.94 179.00 524.32
  C 179.41 538.79 178.44 553.46 179.60 567.83
  C 179.86 571.06 182.36 577.57 184.99 579.52
  Q 186.94 580.97 189.46 580.89"
/>
<path stroke="#949494" vector-effect="non-scaling-stroke" d="
  M 236.29 580.81
  L 241.42 575.99
  Q 241.59 575.83 241.67 575.61
  Q 243.78 570.00 243.95 563.25
  Q 244.46 543.06 244.06 527.29
  C 243.95 522.57 241.83 514.37 236.51 512.73
  Q 231.64 511.24 226.50 511.26
  Q 214.35 511.33 202.20 510.84
  C 187.81 510.27 181.00 514.60 181.05 530.00
  Q 181.11 546.87 181.29 563.75
  Q 181.34 568.25 183.24 573.82
  C 184.31 576.94 187.10 578.72 189.46 580.89"
/>
<path stroke="#808080" vector-effect="non-scaling-stroke" d="
  M 583.46 636.75
  L 582.93 640.26"
/>
<path stroke="#151515" vector-effect="non-scaling-stroke" d="
  M 582.93 640.26
  Q 581.02 644.05 581.67 648.36
  A 1.00 0.98 -27.8 0 1 581.40 649.21
  L 580.59 650.04
  A 1.04 1.03 -24.4 0 0 580.31 650.77
  L 580.64 663.09
  A 1.00 0.99 -78.3 0 0 581.22 663.98
  Q 582.30 664.47 583.48 664.23"
/>
<path stroke="#484848" vector-effect="non-scaling-stroke" d="
  M 583.48 664.23
  L 642.00 664.46"
/>
<path stroke="#151515" vector-effect="non-scaling-stroke" d="
  M 642.00 664.46
  Q 644.05 664.81 645.79 663.77
  A 1.02 1.02 0.0 0 0 646.27 662.96
  Q 646.78 652.01 646.13 641.06
  C 645.06 640.71 646.63 625.56 635.95 624.63
  C 633.85 624.45 631.97 623.78 629.90 623.80
  Q 615.69 623.91 601.49 623.72
  Q 591.08 623.58 590.91 623.61
  Q 584.56 624.73 582.76 632.12
  C 582.36 633.79 583.09 635.11 583.46 636.75"
/>
<path stroke="#5d5d5d" vector-effect="non-scaling-stroke" d="
  M 642.00 664.46
  Q 645.43 663.69 643.55 659.93"
/>
<path stroke="#949494" vector-effect="non-scaling-stroke" d="
  M 643.55 659.93
  C 644.53 648.39 644.62 640.36 641.92 631.32
  Q 641.05 628.40 638.78 627.69
  C 635.21 626.58 632.08 626.19 628.02 626.24
  Q 614.14 626.40 600.25 626.23
  C 590.75 626.11 585.58 625.87 583.46 636.75"
/>
<path stroke="#c8c8c8" vector-effect="non-scaling-stroke" d="
  M 643.55 659.93
  L 583.04 659.75"
/>
<path stroke="#949494" vector-effect="non-scaling-stroke" d="
  M 583.04 659.75
  L 582.93 640.26"
/>
<path stroke="#5d5d5d" vector-effect="non-scaling-stroke" d="
  M 583.04 659.75
  Q 581.37 662.29 583.48 664.23"
/>
<path stroke="#949494" vector-effect="non-scaling-stroke" d="
  M 575.50 1.04
  L 575.50 1.46"
/>
<path stroke="#dedede" vector-effect="non-scaling-stroke" d="
  M 656.50 31.21
  L 655.75 31.29"
/>
<path stroke="#808080" vector-effect="non-scaling-stroke" d="
  M 539.50 162.24
  A 0.49 0.49 0.0 0 0 539.01 161.75
  L 484.77 161.75
  A 0.49 0.49 0.0 0 0 484.28 162.24
  L 484.28 351.02
  A 0.49 0.49 0.0 0 0 484.77 351.51
  L 539.01 351.51
  A 0.49 0.49 0.0 0 0 539.50 351.02
  L 539.50 162.24"
/>
<path stroke="#808080" vector-effect="non-scaling-stroke" d="
  M 479.25 173.26
  A 0.26 0.26 0.0 0 0 478.99 173.00
  L 430.75 173.00
  A 0.26 0.26 0.0 0 0 430.49 173.26
  L 430.49 345.74
  A 0.26 0.26 0.0 0 0 430.75 346.00
  L 478.99 346.00
  A 0.26 0.26 0.0 0 0 479.25 345.74
  L 479.25 173.26"
/>
<path stroke="#949494" vector-effect="non-scaling-stroke" d="
  M 597.88 79.01
  C 583.98 79.04 580.23 88.26 580.24 100.54
  Q 580.27 117.35 580.24 134.17
  C 580.23 141.96 583.51 149.25 590.13 152.82
  Q 592.29 153.99 594.74 153.99
  Q 611.25 154.02 627.75 153.99
  Q 633.93 153.98 636.89 152.57
  C 642.88 149.73 646.73 141.54 646.74 135.50
  Q 646.77 118.36 646.73 101.21
  C 646.70 90.98 643.64 78.90 631.01 78.93
  Q 614.43 78.97 597.88 79.01"
/>
<path stroke="#dedede" vector-effect="non-scaling-stroke" d="
  M 585.69 709.53
  Q 587.40 707.82 589.87 708.06
  C 595.34 708.61 600.92 708.67 606.42 709.22
  C 610.06 709.59 613.94 709.02 617.77 709.28
  Q 624.75 709.77 626.25 709.76
  C 639.97 709.70 653.87 710.31 667.54 709.23
  C 672.70 708.83 677.04 706.78 682.04 705.40
  A 1.02 0.99 12.3 0 0 682.54 705.09
  C 686.80 700.09 690.25 694.61 689.21 687.65
  Q 686.75 671.09 686.75 664.50
  Q 686.75 357.24 686.75 49.98
  C 686.75 46.63 686.32 41.66 684.47 38.43
  C 679.90 30.48 667.62 31.72 659.73 33.01
  A 0.64 0.64 0.0 0 1 658.99 32.47
  Q 658.91 31.87 659.75 31.79"
/>
<path stroke="#dedede" vector-effect="non-scaling-stroke" d="
  M 568.00 709.96
  C 568.51 709.23 568.02 708.75 567.28 708.75
  Q 438.30 708.75 309.32 708.75
  C 308.97 708.75 307.71 709.07 308.53 709.56
  C 309.14 709.92 309.98 709.68 310.75 709.96"
/>
<path stroke="#dedede" vector-effect="non-scaling-stroke" d="
  M 288.50 709.46
  C 290.33 708.78 289.10 708.34 288.31 708.32
  Q 276.92 708.05 261.19 708.63
  Q 243.06 709.30 217.24 708.73
  Q 208.57 708.55 199.71 705.15
  A 1.00 1.00 0.0 0 1 199.14 704.58
  Q 198.79 703.69 198.37 703.51
  Q 196.88 702.88 196.13 701.43
  C 191.57 692.68 192.19 687.81 194.35 677.84
  C 194.84 675.57 194.61 672.80 195.70 670.23
  A 0.65 0.64 -49.9 0 0 195.65 669.62
  Q 195.50 669.41 195.25 669.29"
/>
<path stroke="#a6a6a6" vector-effect="non-scaling-stroke" d="
  M 195.25 669.29
  L 199.28 669.41
  A 1.00 1.00 0.0 0 1 200.25 670.45
  Q 199.95 678.00 197.92 685.26
  C 196.98 688.63 197.60 691.21 198.21 694.46
  A 0.99 0.98 -79.7 0 0 198.67 695.13
  Q 199.23 695.47 199.51 696.04
  C 200.48 698.01 202.00 699.37 203.76 700.64
  A 0.93 0.92 -23.7 0 0 204.26 700.83
  C 207.94 701.17 211.65 701.99 215.28 701.91
  Q 246.01 701.30 276.75 701.78
  C 279.45 701.82 282.46 700.92 285.03 700.84
  C 293.84 700.58 301.23 699.81 311.22 700.39
  Q 317.23 700.75 322.42 700.75
  Q 437.66 700.73 552.90 700.77
  C 563.45 700.78 578.65 700.34 591.54 700.58
  C 593.71 700.63 596.23 701.31 598.58 701.48
  C 605.33 701.98 611.48 702.88 618.31 702.11
  Q 620.92 701.82 623.72 702.02
  C 628.25 702.35 634.72 701.75 637.32 701.75
  Q 646.65 701.75 655.98 701.75
  C 657.92 701.75 659.83 702.77 662.00 702.49
  C 667.07 701.83 671.83 701.88 676.78 700.38
  C 683.68 698.30 683.66 686.33 682.44 680.92
  C 680.51 672.39 680.69 665.10 680.70 656.48
  C 680.90 455.57 680.23 254.65 680.52 53.75
  C 680.52 51.90 679.74 45.36 677.55 43.65
  C 674.49 41.26 667.60 41.92 663.49 42.46
  C 661.12 42.77 655.75 42.80 655.79 38.75"
/>
<path stroke="#c8c8c8" vector-effect="non-scaling-stroke" d="
  M 195.25 669.29
  L 194.96 669.00"
/>
<path stroke="#5d5d5d" vector-effect="non-scaling-stroke" d="
  M 564.25 669.29
  Q 587.42 672.04 594.01 671.97
  Q 614.45 671.77 634.89 671.78
  C 638.52 671.78 640.83 672.00 645.01 671.26
  Q 647.66 670.80 651.74 671.77
  A 1.00 1.00 0.0 0 0 652.92 671.11
  L 653.49 669.38"
/>
<path stroke="#808080" vector-effect="non-scaling-stroke" d="
  M 599.25 406.71
  C 594.19 406.37 586.49 406.59 584.09 412.31
  Q 580.89 419.91 580.92 424.74
  Q 581.04 441.91 581.29 459.07
  C 581.34 463.08 582.44 466.49 583.48 470.29
  C 583.98 472.12 585.04 472.86 586.16 474.28
  C 590.15 479.29 605.43 477.50 611.50 477.54"
/>
<path stroke="#151515" vector-effect="non-scaling-stroke" d="
  M 611.50 477.54
  C 612.96 477.82 616.81 477.38 616.74 478.35
  A 0.81 0.80 12.1 0 0 617.27 479.16
  Q 622.70 481.13 628.30 479.06
  C 630.18 478.37 633.14 479.50 635.20 479.13
  C 644.22 477.51 647.80 464.97 646.81 456.94
  A 1.14 1.09 -36.5 0 1 646.91 456.36
  C 647.56 455.09 646.95 453.96 646.97 453.09
  Q 647.24 436.79 647.09 420.50
  C 647.06 416.86 645.06 414.75 643.63 411.64
  C 641.80 407.67 637.61 404.41 633.08 404.74
  Q 628.36 405.08 623.61 405.05
  A 1.04 1.02 29.5 0 0 623.09 405.19
  L 622.29 405.67
  Q 622.07 405.81 621.81 405.82
  C 614.17 406.09 606.87 405.98 599.25 406.71"
/>
<path stroke="#949494" vector-effect="non-scaling-stroke" d="
  M 611.50 477.54
  L 635.51 477.14
  Q 638.23 477.10 640.02 474.94
  C 641.25 473.45 642.77 472.11 643.45 470.02
  Q 645.39 464.01 645.44 462.18
  Q 645.99 444.25 645.69 426.31
  C 645.60 420.56 644.54 414.18 640.61 409.74
  C 637.78 406.53 633.89 406.85 629.75 407.00
  Q 622.97 407.24 599.25 406.71"
/>
<path stroke="#c8c8c8" vector-effect="non-scaling-stroke" d="
  M 166.46 407.75
  L 166.00 407.46"
/>
<path stroke="#5d5d5d" vector-effect="non-scaling-stroke" d="
  M 165.46 409.75
  L 165.04 409.75"
/>
<path stroke="#292929" vector-effect="non-scaling-stroke" d="
  M 117.29 475.00
  L 117.00 474.71"
/>
<path stroke="#949494" vector-effect="non-scaling-stroke" d="
  M 182.96 660.52
  C 190.96 660.99 199.93 660.22 206.77 660.25
  Q 224.23 660.31 242.47 659.98
  A 1.00 0.99 -89.7 0 0 243.45 659.00
  Q 243.66 648.22 243.34 636.72
  C 243.25 633.34 242.25 630.19 241.53 626.87
  A 1.07 1.01 -73.7 0 0 241.29 626.40
  L 238.23 623.12
  A 1.01 0.96 -15.0 0 0 237.68 622.82
  C 235.33 622.39 233.02 621.49 230.67 621.50
  Q 214.85 621.58 199.03 621.37
  C 196.23 621.33 189.70 621.55 188.23 622.45
  C 182.72 625.78 182.00 632.89 182.00 638.51
  Q 181.99 649.18 182.02 659.53
  A 0.99 0.99 0.0 0 0 182.96 660.52"
/>
</g>
<path fill="#ffffff" d="
  M 247.81 0.00
  L 251.31 0.00
  Q 252.12 1.00 253.00 1.00
  Q 411.62 0.99 570.25 1.01
  L 570.29 1.97
  Q 419.23 2.03 268.17 1.99
  C 262.37 1.99 256.40 2.09 250.43 1.14
  C 247.80 0.73 245.24 1.93 242.50 1.96
  Q 216.71 2.21 185.35 1.78
  C 180.77 1.72 173.89 0.90 167.90 1.51
  A 1.00 0.99 -2.9 0 0 167.00 2.50
  L 166.98 118.04
  L 166.58 117.86
  A 1.00 1.00 0.0 0 1 166.00 116.95
  L 166.00 2.67
  A 1.03 1.00 -16.2 0 1 166.49 1.81
  Q 170.07 -0.35 173.86 0.68
  A 0.99 0.94 40.9 0 0 174.48 0.65
  C 176.62 -0.17 178.35 0.78 180.10 0.80
  Q 213.17 1.17 246.24 0.95
  A 1.00 0.99 -63.7 0 0 246.85 0.74
  L 247.81 0.00
  Z"
/>
<path fill="#000000" d="
  M 570.29 1.97
  L 575.50 1.46
  Q 576.19 2.00 576.75 2.00
  Q 615.59 1.99 654.11 2.01
  A 1.00 1.00 0.0 0 1 655.11 3.04
  Q 654.60 17.66 655.75 31.29
  L 655.79 38.75
  C 655.84 248.54 656.58 458.39 655.69 668.18
  A 1.01 1.01 0.0 0 1 654.85 669.16
  L 653.49 669.38
  Q 648.04 670.11 642.57 669.50
  C 636.92 668.88 630.51 669.14 624.56 669.33
  C 614.51 669.66 599.87 669.05 584.16 669.48
  C 577.66 669.67 571.67 668.55 564.25 669.29
  C 557.88 668.97 549.91 669.23 545.23 669.23
  Q 355.26 669.37 306.56 669.19
  Q 236.64 668.94 205.01 669.26
  C 202.16 669.29 198.34 668.68 194.96 669.00
  Q 193.77 668.70 192.75 669.21
  C 185.99 669.02 168.32 669.94 166.02 667.80
  L 166.39 667.78
  A 0.65 0.64 -1.9 0 0 167.00 667.14
  Q 167.01 585.17 166.99 503.21
  C 166.99 502.86 166.67 500.78 165.97 502.22
  L 161.00 507.79
  Q 159.23 508.39 159.29 510.25
  L 150.00 522.79
  Q 148.31 523.12 148.50 524.79
  L 147.25 526.54
  Q 146.65 526.36 146.33 526.83
  Q 144.58 529.31 143.10 531.98
  L 136.25 541.54
  Q 134.41 542.07 134.29 544.00
  L 133.25 545.54
  Q 131.42 545.97 131.50 547.79
  L 122.21 560.75
  Q 120.38 561.01 120.50 562.79
  L 119.21 564.75
  Q 117.26 565.20 117.29 567.25
  L 108.00 579.79
  Q 106.35 580.33 106.46 582.00
  L 103.34 585.98
  A 1.01 1.00 -52.8 0 1 101.96 586.17
  L 96.96 582.50
  Q 95.94 580.53 93.75 580.29
  L 92.46 579.25
  Q 91.78 577.33 89.75 577.29
  L 88.46 576.25
  Q 87.91 574.42 86.00 574.54
  L 80.05 569.90
  C 78.86 568.88 72.09 563.03 71.00 563.29
  L 69.46 562.25
  Q 68.91 560.42 67.00 560.54
  L 62.00 556.71
  Q 61.42 554.91 59.50 554.79
  Q 58.11 554.40 59.19 553.63
  Q 62.27 550.65 64.08 546.74
  L 70.57 537.77
  Q 75.16 532.78 78.92 527.14
  A 0.27 0.27 0.0 0 0 78.88 526.81
  Q 78.72 526.64 78.54 526.75
  L 79.50 525.71
  L 79.75 525.75
  A 0.33 0.33 0.0 0 0 80.06 525.63
  Q 85.03 519.51 89.11 512.77
  L 96.57 502.33
  Q 97.05 502.61 97.18 502.43
  Q 107.31 488.77 117.29 475.00
  Q 120.86 470.82 123.59 466.08
  L 128.09 460.04
  L 165.46 409.75
  L 166.46 407.75
  Q 167.21 404.49 166.96 401.29
  A 1.00 0.99 88.1 0 0 165.98 400.37
  Q 120.23 399.68 74.50 400.26
  Q 74.18 400.27 74.19 400.91
  L 74.08 364.98
  A 1.00 1.00 0.0 0 0 73.08 363.99
  L 1.25 363.96
  Q 1.28 363.69 1.22 363.45
  Q 1.00 362.62 1.00 362.50
  L 1.00 120.75
  Q 1.00 120.51 1.21 119.81
  Q 1.32 119.45 1.25 119.04
  Q 83.91 118.92 166.56 119.06
  Q 167.25 119.06 166.98 118.04
  L 167.00 2.50
  A 1.00 0.99 -2.9 0 1 167.90 1.51
  C 173.89 0.90 180.77 1.72 185.35 1.78
  Q 216.71 2.21 242.50 1.96
  C 245.24 1.93 247.80 0.73 250.43 1.14
  C 256.40 2.09 262.37 1.99 268.17 1.99
  Q 419.23 2.03 570.29 1.97
  Z
  M 179.09 118.96
  C 201.30 119.70 223.78 119.34 246.00 119.21
  Q 248.89 118.54 251.98 118.90
  L 398.00 119.02
  A 1.00 1.00 0.0 0 1 399.00 120.02
  L 399.00 181.00
  A 1.00 1.00 0.0 0 0 400.00 182.00
  L 424.25 182.00
  A 1.00 1.00 0.0 0 1 425.25 183.00
  L 425.25 332.25
  A 1.00 1.00 0.0 0 1 424.25 333.25
  L 400.00 333.25
  A 1.00 1.00 0.0 0 0 399.00 334.25
  L 399.00 363.00
  A 1.00 1.00 0.0 0 1 398.00 364.00
  L 301.50 364.00
  A 1.00 1.00 0.0 0 0 300.50 365.00
  L 300.50 399.47
  A 1.00 1.00 0.0 0 1 299.50 400.47
  L 253.03 400.69
  A 1.00 1.00 0.0 0 0 252.03 401.68
  L 251.97 414.14
  A 1.01 0.99 24.0 0 0 252.24 414.82
  L 370.30 541.65
  A 1.00 1.00 0.0 0 1 370.25 543.06
  L 331.39 579.21
  A 1.01 1.00 -42.8 0 1 329.97 579.16
  Q 293.01 539.43 256.05 499.70
  Q 254.91 498.48 253.79 497.40
  Q 252.09 495.76 252.09 498.12
  L 252.07 658.98
  A 0.72 0.61 34.2 0 0 252.16 659.31
  Q 252.35 659.63 252.25 660.00
  Q 245.24 662.39 245.70 656.57
  C 246.27 649.25 245.97 641.79 245.96 634.45
  Q 245.96 634.20 245.85 633.98
  Q 243.71 630.00 243.03 625.63
  A 1.02 1.01 19.4 0 0 242.78 625.12
  C 240.27 622.35 236.36 618.66 232.38 618.58
  C 221.85 618.37 210.45 619.47 200.08 618.14
  C 192.27 617.15 183.83 620.92 180.91 628.49
  Q 179.68 631.69 179.66 638.60
  C 179.65 645.48 180.14 652.66 179.63 659.49
  A 1.00 0.99 88.6 0 1 178.76 660.41
  Q 175.91 660.78 171.26 660.49
  Q 169.55 660.39 169.94 662.56
  Q 170.65 665.87 174.25 664.21
  L 251.80 664.44
  A 0.41 0.35 22.5 0 0 252.04 664.36
  L 252.25 664.21
  C 253.11 664.87 290.50 664.48 290.92 664.48
  C 375.54 664.52 460.33 665.43 544.94 664.25
  Q 555.42 664.11 566.58 664.64
  Q 569.79 664.79 569.55 662.19
  L 569.21 658.50
  L 569.28 517.01
  Q 570.58 504.06 570.95 516.53
  A 0.45 0.12 89.7 0 0 571.06 516.94
  L 571.33 517.03
  A 0.42 0.40 5.7 0 1 571.62 517.37
  L 572.24 522.89
  A 1.00 0.99 17.9 0 0 572.58 523.54
  Q 574.39 525.10 574.86 527.41
  A 1.02 1.01 7.7 0 0 575.39 528.10
  C 577.40 529.11 576.81 521.82 580.02 526.36
  A 0.99 0.99 0.0 0 1 580.20 526.96
  L 580.04 534.25
  Q 580.11 549.06 580.32 563.88
  C 580.42 571.04 579.94 580.01 586.28 583.30
  A 1.03 1.00 88.5 0 1 586.70 583.71
  Q 587.53 585.27 589.47 585.46
  Q 616.00 586.65 632.44 585.95
  Q 640.33 585.62 643.73 577.51
  Q 646.52 572.73 646.51 570.50
  Q 646.49 549.88 646.71 529.25
  L 646.79 525.69
  A 0.99 0.99 0.0 0 1 648.20 524.81
  Q 649.75 525.52 650.36 526.87
  Q 651.24 528.87 651.86 526.77
  Q 651.94 526.47 651.94 526.25
  Q 652.08 477.99 651.75 429.73
  C 651.73 426.96 652.18 423.63 652.14 420.56
  C 651.79 397.85 652.36 375.19 652.18 352.49
  Q 652.07 339.56 652.07 339.52
  Q 652.10 332.33 651.99 325.14
  Q 651.79 312.07 651.46 325.14
  Q 651.37 328.76 651.56 332.41
  A 0.64 0.61 -14.2 0 1 651.18 333.02
  C 648.93 334.04 650.26 326.26 650.44 325.91
  A 1.03 1.01 52.4 0 0 650.52 325.26
  Q 649.88 322.28 648.95 321.63
  Q 647.62 320.69 647.70 322.32
  Q 647.90 326.49 646.38 330.29
  L 646.42 319.04
  Q 648.85 310.44 644.19 303.24
  C 643.16 301.65 641.30 300.02 640.04 298.23
  A 1.05 0.99 -6.3 0 0 639.56 297.87
  L 633.70 295.76
  A 1.07 1.06 -41.9 0 0 633.11 295.73
  C 627.45 297.19 622.37 295.59 618.00 297.04
  L 596.75 297.21
  Q 596.94 295.53 595.57 294.61
  A 1.04 1.03 -33.4 0 0 594.83 294.46
  Q 591.57 295.07 589.11 297.35
  A 1.04 0.98 20.0 0 1 588.51 297.61
  C 585.13 297.87 583.91 300.85 582.00 304.04
  Q 579.78 303.73 579.30 305.93
  A 1.00 0.99 5.8 0 1 578.34 306.71
  Q 576.26 306.74 574.68 308.14
  A 1.00 1.00 0.0 0 1 573.28 308.06
  Q 572.59 307.30 572.17 306.37
  Q 571.39 304.59 570.70 306.41
  Q 570.38 307.22 570.97 307.47
  A 0.64 0.63 -71.7 0 1 571.34 308.21
  L 571.21 308.74
  Q 570.13 313.22 569.64 308.64
  L 569.28 305.25
  L 569.29 193.75
  Q 569.50 193.71 569.70 193.70
  A 1.00 0.99 89.2 0 1 570.73 194.71
  Q 570.72 196.06 571.29 195.40
  A 0.81 0.81 0.0 0 1 572.37 195.28
  Q 574.25 196.66 576.53 196.00
  A 1.00 1.00 0.0 0 1 577.80 196.90
  Q 578.00 200.02 580.94 201.70
  C 579.65 210.39 580.20 221.63 580.27 238.24
  C 580.31 246.37 581.52 257.37 590.35 260.98
  Q 592.87 262.01 598.30 262.01
  Q 613.47 262.02 628.64 261.97
  C 645.95 261.91 646.89 247.39 646.76 234.12
  C 646.66 223.28 647.07 213.39 646.25 203.04
  L 648.64 198.61
  A 1.00 1.00 0.0 0 1 649.38 198.10
  L 650.38 197.96
  A 0.99 0.98 -87.4 0 0 651.21 197.19
  Q 652.40 192.02 652.06 185.50
  C 651.48 174.35 652.26 159.04 652.20 147.08
  Q 651.84 77.47 652.31 7.30
  A 1.01 1.01 0.0 0 0 651.31 6.29
  L 646.54 6.25
  L 580.75 6.04
  Q 575.38 6.69 570.00 6.05
  L 252.04 6.00
  L 246.00 6.29
  Q 212.73 5.59 179.46 6.25
  Q 175.27 5.42 171.13 6.43
  A 0.99 0.98 84.6 0 0 170.37 7.35
  Q 169.92 16.54 170.02 25.73
  C 170.36 55.97 170.15 86.21 170.30 116.46
  A 1.04 0.97 -27.6 0 1 170.08 117.08
  Q 169.89 117.32 169.82 117.59
  A 0.80 0.80 0.0 0 0 170.56 118.60
  L 179.09 118.96
  Z
  M 189.01 472.36
  Q 192.80 472.96 196.50 472.96
  Q 213.51 472.95 229.00 473.05
  Q 231.31 473.07 229.74 471.37
  L 207.15 447.06
  A 1.00 1.00 0.0 0 0 205.61 447.15
  L 188.36 470.79
  A 1.00 0.99 -67.5 0 0 189.01 472.36
  Z
  M 189.46 580.89
  C 204.80 582.20 220.87 581.34 236.29 580.81
  Q 238.02 581.58 239.68 580.44
  Q 242.13 578.76 242.53 577.75
  C 244.11 573.67 246.57 569.78 246.27 565.04
  Q 245.96 560.18 245.96 559.34
  Q 246.07 541.25 245.57 523.19
  A 0.94 0.92 26.9 0 0 245.38 522.63
  Q 243.79 520.43 244.31 517.94
  Q 244.78 515.66 242.32 514.70
  Q 240.50 513.98 240.12 511.99
  A 1.01 0.99 -79.0 0 0 239.70 511.35
  C 233.09 506.91 225.06 507.23 216.49 507.89
  C 212.56 508.20 205.50 508.15 200.00 509.49
  C 197.51 510.10 193.69 508.64 190.80 509.76
  C 188.80 510.54 187.46 512.18 185.63 513.24
  C 182.27 515.18 178.91 520.94 179.00 524.32
  C 179.41 538.79 178.44 553.46 179.60 567.83
  C 179.86 571.06 182.36 577.57 184.99 579.52
  Q 186.94 580.97 189.46 580.89
  Z
  M 583.46 636.75
  L 582.93 640.26
  Q 581.02 644.05 581.67 648.36
  A 1.00 0.98 -27.8 0 1 581.40 649.21
  L 580.59 650.04
  A 1.04 1.03 -24.4 0 0 580.31 650.77
  L 580.64 663.09
  A 1.00 0.99 -78.3 0 0 581.22 663.98
  Q 582.30 664.47 583.48 664.23
  L 642.00 664.46
  Q 644.05 664.81 645.79 663.77
  A 1.02 1.02 0.0 0 0 646.27 662.96
  Q 646.78 652.01 646.13 641.06
  C 645.06 640.71 646.63 625.56 635.95 624.63
  C 633.85 624.45 631.97 623.78 629.90 623.80
  Q 615.69 623.91 601.49 623.72
  Q 591.08 623.58 590.91 623.61
  Q 584.56 624.73 582.76 632.12
  C 582.36 633.79 583.09 635.11 583.46 636.75
  Z"
/>
<path fill="#292929" d="
  M 575.50 1.04
  L 575.50 1.46
  L 570.29 1.97
  L 570.25 1.01
  L 575.50 1.04
  Z"
/>
<path fill="#ffffff" d="
  M 575.50 1.04
  L 655.00 1.01
  A 1.00 1.00 0.0 0 1 656.00 2.02
  Q 655.96 13.51 656.05 24.99
  Q 656.09 29.11 656.50 31.21
  L 655.75 31.29
  Q 654.60 17.66 655.11 3.04
  A 1.00 1.00 0.0 0 0 654.11 2.01
  Q 615.59 1.99 576.75 2.00
  Q 576.19 2.00 575.50 1.46
  L 575.50 1.04
  Z"
/>
<path fill="#292929" d="
  M 179.46 6.25
  L 179.67 25.69
  A 1.03 1.01 -61.8 0 0 179.83 26.24
  C 181.38 28.58 181.76 31.40 183.14 33.44
  Q 185.42 36.80 188.18 38.84
  Q 190.10 40.26 192.50 40.26
  Q 210.29 40.23 228.10 40.27
  Q 234.03 40.28 236.72 38.96
  C 247.95 33.41 245.99 15.40 246.00 6.29
  L 252.04 6.00
  L 251.98 118.90
  Q 248.89 118.54 246.00 119.21
  Q 246.04 107.56 245.97 95.94
  C 245.91 85.38 243.01 74.23 230.12 74.24
  Q 213.22 74.25 196.30 74.25
  C 183.38 74.25 179.15 83.56 179.25 95.10
  Q 179.36 106.88 179.09 118.96
  L 170.56 118.60
  A 0.80 0.80 0.0 0 1 169.82 117.59
  Q 169.89 117.32 170.08 117.08
  A 1.04 0.97 -27.6 0 0 170.30 116.46
  C 170.15 86.21 170.36 55.97 170.02 25.73
  Q 169.92 16.54 170.37 7.35
  A 0.99 0.98 84.6 0 1 171.13 6.43
  Q 175.27 5.42 179.46 6.25
  Z"
/>
<path fill="#ffffff" d="
  M 246.00 6.29
  C 245.99 15.40 247.95 33.41 236.72 38.96
  Q 234.03 40.28 228.10 40.27
  Q 210.29 40.23 192.50 40.26
  Q 190.10 40.26 188.18 38.84
  Q 185.42 36.80 183.14 33.44
  C 181.76 31.40 181.38 28.58 179.83 26.24
  A 1.03 1.01 -61.8 0 1 179.67 25.69
  L 179.46 6.25
  Q 212.73 5.59 246.00 6.29
  Z"
/>
<path fill="#ffffff" d="
  M 252.04 6.00
  L 570.00 6.05
  C 569.93 24.75 569.32 43.14 569.29 61.69
  Q 569.18 127.72 569.29 193.75
  L 569.28 305.25
  L 569.28 517.01
  L 569.21 658.50
  L 568.98 659.23
  A 1.01 0.99 -81.2 0 1 568.03 659.94
  L 252.25 660.00
  Q 252.35 659.63 252.16 659.31
  A 0.72 0.61 34.2 0 1 252.07 658.98
  L 252.09 498.12
  Q 252.09 495.76 253.79 497.40
  Q 254.91 498.48 256.05 499.70
  Q 293.01 539.43 329.97 579.16
  A 1.01 1.00 -42.8 0 0 331.39 579.21
  L 370.25 543.06
  A 1.00 1.00 0.0 0 0 370.30 541.65
  L 252.24 414.82
  A 1.01 0.99 24.0 0 1 251.97 414.14
  L 252.03 401.68
  A 1.00 1.00 0.0 0 1 253.03 400.69
  L 299.50 400.47
  A 1.00 1.00 0.0 0 0 300.50 399.47
  L 300.50 365.00
  A 1.00 1.00 0.0 0 1 301.50 364.00
  L 398.00 364.00
  A 1.00 1.00 0.0 0 0 399.00 363.00
  L 399.00 334.25
  A 1.00 1.00 0.0 0 1 400.00 333.25
  L 424.25 333.25
  A 1.00 1.00 0.0 0 0 425.25 332.25
  L 425.25 183.00
  A 1.00 1.00 0.0 0 0 424.25 182.00
  L 400.00 182.00
  A 1.00 1.00 0.0 0 1 399.00 181.00
  L 399.00 120.02
  A 1.00 1.00 0.0 0 0 398.00 119.02
  L 251.98 118.90
  L 252.04 6.00
  Z
  M 539.50 162.24
  A 0.49 0.49 0.0 0 0 539.01 161.75
  L 484.77 161.75
  A 0.49 0.49 0.0 0 0 484.28 162.24
  L 484.28 351.02
  A 0.49 0.49 0.0 0 0 484.77 351.51
  L 539.01 351.51
  A 0.49 0.49 0.0 0 0 539.50 351.02
  L 539.50 162.24
  Z
  M 479.25 173.26
  A 0.26 0.26 0.0 0 0 478.99 173.00
  L 430.75 173.00
  A 0.26 0.26 0.0 0 0 430.49 173.26
  L 430.49 345.74
  A 0.26 0.26 0.0 0 0 430.75 346.00
  L 478.99 346.00
  A 0.26 0.26 0.0 0 0 479.25 345.74
  L 479.25 173.26
  Z"
/>
<path fill="#292929" d="
  M 580.75 6.04
  Q 579.12 19.16 580.13 26.83
  C 580.92 32.85 584.61 42.62 590.79 44.48
  Q 593.04 45.16 597.77 44.99
  C 607.66 44.64 618.70 44.49 624.44 44.84
  Q 633.35 45.38 635.76 44.50
  C 649.00 39.64 646.98 19.66 646.54 6.25
  L 651.31 6.29
  A 1.01 1.01 0.0 0 1 652.31 7.30
  Q 651.84 77.47 652.20 147.08
  C 652.26 159.04 651.48 174.35 652.06 185.50
  Q 652.40 192.02 651.21 197.19
  A 0.99 0.98 -87.4 0 1 650.38 197.96
  L 649.38 198.10
  A 1.00 1.00 0.0 0 0 648.64 198.61
  L 646.25 203.04
  Q 644.73 195.04 640.34 190.91
  Q 637.81 188.52 634.32 188.51
  Q 613.88 188.48 593.50 188.60
  C 585.61 188.64 582.81 195.22 580.94 201.70
  Q 578.00 200.02 577.80 196.90
  A 1.00 1.00 0.0 0 0 576.53 196.00
  Q 574.25 196.66 572.37 195.28
  A 0.81 0.81 0.0 0 0 571.29 195.40
  Q 570.72 196.06 570.73 194.71
  A 1.00 0.99 89.2 0 0 569.70 193.70
  Q 569.50 193.71 569.29 193.75
  Q 569.18 127.72 569.29 61.69
  C 569.32 43.14 569.93 24.75 570.00 6.05
  Q 575.38 6.69 580.75 6.04
  Z
  M 597.88 79.01
  C 583.98 79.04 580.23 88.26 580.24 100.54
  Q 580.27 117.35 580.24 134.17
  C 580.23 141.96 583.51 149.25 590.13 152.82
  Q 592.29 153.99 594.74 153.99
  Q 611.25 154.02 627.75 153.99
  Q 633.93 153.98 636.89 152.57
  C 642.88 149.73 646.73 141.54 646.74 135.50
  Q 646.77 118.36 646.73 101.21
  C 646.70 90.98 643.64 78.90 631.01 78.93
  Q 614.43 78.97 597.88 79.01
  Z"
/>
<path fill="#ffffff" d="
  M 580.75 6.04
  L 646.54 6.25
  C 646.98 19.66 649.00 39.64 635.76 44.50
  Q 633.35 45.38 624.44 44.84
  C 618.70 44.49 607.66 44.64 597.77 44.99
  Q 593.04 45.16 590.79 44.48
  C 584.61 42.62 580.92 32.85 580.13 26.83
  Q 579.12 19.16 580.75 6.04
  Z"
/>
<path fill="#ffffff" d="
  M 662.94 711.00
  L 616.69 711.00
  C 606.25 710.64 596.03 709.44 585.69 709.53
  Q 587.40 707.82 589.87 708.06
  C 595.34 708.61 600.92 708.67 606.42 709.22
  C 610.06 709.59 613.94 709.02 617.77 709.28
  Q 624.75 709.77 626.25 709.76
  C 639.97 709.70 653.87 710.31 667.54 709.23
  C 672.70 708.83 677.04 706.78 682.04 705.40
  A 1.02 0.99 12.3 0 0 682.54 705.09
  C 686.80 700.09 690.25 694.61 689.21 687.65
  Q 686.75 671.09 686.75 664.50
  Q 686.75 357.24 686.75 49.98
  C 686.75 46.63 686.32 41.66 684.47 38.43
  C 679.90 30.48 667.62 31.72 659.73 33.01
  A 0.64 0.64 0.0 0 1 658.99 32.47
  Q 658.91 31.87 659.75 31.79
  C 669.52 30.37 681.32 29.23 686.49 39.51
  C 687.59 41.69 688.00 48.75 688.00 52.28
  Q 688.01 355.14 688.21 658.00
  Q 688.22 670.10 690.41 686.07
  Q 691.83 696.40 685.17 703.89
  Q 683.19 706.12 679.96 707.30
  Q 671.73 710.31 662.94 711.00
  Z"
/>
<path fill="#bcbcbc" d="
  M 655.75 31.29
  L 656.50 31.21
  L 659.75 31.79
  Q 658.91 31.87 658.99 32.47
  A 0.64 0.64 0.0 0 0 659.73 33.01
  C 667.62 31.72 679.90 30.48 684.47 38.43
  C 686.32 41.66 686.75 46.63 686.75 49.98
  Q 686.75 357.24 686.75 664.50
  Q 686.75 671.09 689.21 687.65
  C 690.25 694.61 686.80 700.09 682.54 705.09
  A 1.02 0.99 12.3 0 1 682.04 705.40
  C 677.04 706.78 672.70 708.83 667.54 709.23
  C 653.87 710.31 639.97 709.70 626.25 709.76
  Q 624.75 709.77 617.77 709.28
  C 613.94 709.02 610.06 709.59 606.42 709.22
  C 600.92 708.67 595.34 708.61 589.87 708.06
  Q 587.40 707.82 585.69 709.53
  L 568.00 709.96
  C 568.51 709.23 568.02 708.75 567.28 708.75
  Q 438.30 708.75 309.32 708.75
  C 308.97 708.75 307.71 709.07 308.53 709.56
  C 309.14 709.92 309.98 709.68 310.75 709.96
  L 288.50 709.46
  C 290.33 708.78 289.10 708.34 288.31 708.32
  Q 276.92 708.05 261.19 708.63
  Q 243.06 709.30 217.24 708.73
  Q 208.57 708.55 199.71 705.15
  A 1.00 1.00 0.0 0 1 199.14 704.58
  Q 198.79 703.69 198.37 703.51
  Q 196.88 702.88 196.13 701.43
  C 191.57 692.68 192.19 687.81 194.35 677.84
  C 194.84 675.57 194.61 672.80 195.70 670.23
  A 0.65 0.64 -49.9 0 0 195.65 669.62
  Q 195.50 669.41 195.25 669.29
  L 199.28 669.41
  A 1.00 1.00 0.0 0 1 200.25 670.45
  Q 199.95 678.00 197.92 685.26
  C 196.98 688.63 197.60 691.21 198.21 694.46
  A 0.99 0.98 -79.7 0 0 198.67 695.13
  Q 199.23 695.47 199.51 696.04
  C 200.48 698.01 202.00 699.37 203.76 700.64
  A 0.93 0.92 -23.7 0 0 204.26 700.83
  C 207.94 701.17 211.65 701.99 215.28 701.91
  Q 246.01 701.30 276.75 701.78
  C 279.45 701.82 282.46 700.92 285.03 700.84
  C 293.84 700.58 301.23 699.81 311.22 700.39
  Q 317.23 700.75 322.42 700.75
  Q 437.66 700.73 552.90 700.77
  C 563.45 700.78 578.65 700.34 591.54 700.58
  C 593.71 700.63 596.23 701.31 598.58 701.48
  C 605.33 701.98 611.48 702.88 618.31 702.11
  Q 620.92 701.82 623.72 702.02
  C 628.25 702.35 634.72 701.75 637.32 701.75
  Q 646.65 701.75 655.98 701.75
  C 657.92 701.75 659.83 702.77 662.00 702.49
  C 667.07 701.83 671.83 701.88 676.78 700.38
  C 683.68 698.30 683.66 686.33 682.44 680.92
  C 680.51 672.39 680.69 665.10 680.70 656.48
  C 680.90 455.57 680.23 254.65 680.52 53.75
  C 680.52 51.90 679.74 45.36 677.55 43.65
  C 674.49 41.26 667.60 41.92 663.49 42.46
  C 661.12 42.77 655.75 42.80 655.79 38.75
  L 655.75 31.29
  Z"
/>
<path fill="#909090" d="
  M 655.79 38.75
  C 655.75 42.80 661.12 42.77 663.49 42.46
  C 667.60 41.92 674.49 41.26 677.55 43.65
  C 679.74 45.36 680.52 51.90 680.52 53.75
  C 680.23 254.65 680.90 455.57 680.70 656.48
  C 680.69 665.10 680.51 672.39 682.44 680.92
  C 683.66 686.33 683.68 698.30 676.78 700.38
  C 671.83 701.88 667.07 701.83 662.00 702.49
  C 659.83 702.77 657.92 701.75 655.98 701.75
  Q 646.65 701.75 637.32 701.75
  C 634.72 701.75 628.25 702.35 623.72 702.02
  Q 620.92 701.82 618.31 702.11
  C 611.48 702.88 605.33 701.98 598.58 701.48
  C 596.23 701.31 593.71 700.63 591.54 700.58
  C 578.65 700.34 563.45 700.78 552.90 700.77
  Q 437.66 700.73 322.42 700.75
  Q 317.23 700.75 311.22 700.39
  C 301.23 699.81 293.84 700.58 285.03 700.84
  C 282.46 700.92 279.45 701.82 276.75 701.78
  Q 246.01 701.30 215.28 701.91
  C 211.65 701.99 207.94 701.17 204.26 700.83
  A 0.93 0.92 -23.7 0 1 203.76 700.64
  C 202.00 699.37 200.48 698.01 199.51 696.04
  Q 199.23 695.47 198.67 695.13
  A 0.99 0.98 -79.7 0 1 198.21 694.46
  C 197.60 691.21 196.98 688.63 197.92 685.26
  Q 199.95 678.00 200.25 670.45
  A 1.00 1.00 0.0 0 0 199.28 669.41
  L 195.25 669.29
  L 194.96 669.00
  C 198.34 668.68 202.16 669.29 205.01 669.26
  Q 236.64 668.94 306.56 669.19
  Q 355.26 669.37 545.23 669.23
  C 549.91 669.23 557.88 668.97 564.25 669.29
  Q 587.42 672.04 594.01 671.97
  Q 614.45 671.77 634.89 671.78
  C 638.52 671.78 640.83 672.00 645.01 671.26
  Q 647.66 670.80 651.74 671.77
  A 1.00 1.00 0.0 0 0 652.92 671.11
  L 653.49 669.38
  L 654.85 669.16
  A 1.01 1.01 0.0 0 0 655.69 668.18
  C 656.58 458.39 655.84 248.54 655.79 38.75
  Z"
/>
<path fill="#ffffff" d="
  M 246.00 119.21
  C 223.78 119.34 201.30 119.70 179.09 118.96
  Q 179.36 106.88 179.25 95.10
  C 179.15 83.56 183.38 74.25 196.30 74.25
  Q 213.22 74.25 230.12 74.24
  C 243.01 74.23 245.91 85.38 245.97 95.94
  Q 246.04 107.56 246.00 119.21
  Z"
/>
<path fill="#ffffff" d="
  M 580.24 100.54
  C 580.23 88.26 583.98 79.04 597.88 79.01
  Q 614.43 78.97 631.01 78.93
  C 643.64 78.90 646.70 90.98 646.73 101.21
  Q 646.77 118.36 646.74 135.50
  C 646.73 141.54 642.88 149.73 636.89 152.57
  Q 633.93 153.98 627.75 153.99
  Q 611.25 154.02 594.74 153.99
  Q 592.29 153.99 590.13 152.82
  C 583.51 149.25 580.23 141.96 580.24 134.17
  Q 580.27 117.35 580.24 100.54
  Z"
/>
<path fill="#ffffff" d="
  M 1.25 119.04
  Q 1.32 119.45 1.21 119.81
  Q 1.00 120.51 1.00 120.75
  L 1.00 362.50
  Q 1.00 362.62 1.22 363.45
  Q 1.28 363.69 1.25 363.96
  L 0.00 363.44
  L 0.00 119.44
  L 1.25 119.04
  Z"
/>
<rect fill="#000000" x="484.28" y="161.75" width="55.22" height="189.76" rx="0.49"/>
<rect fill="#000000" x="430.49" y="173.00" width="48.76" height="173.00" rx="0.26"/>
<path fill="#ffffff" d="
  M 646.25 203.04
  C 647.07 213.39 646.66 223.28 646.76 234.12
  C 646.89 247.39 645.95 261.91 628.64 261.97
  Q 613.47 262.02 598.30 262.01
  Q 592.87 262.01 590.35 260.98
  C 581.52 257.37 580.31 246.37 580.27 238.24
  C 580.20 221.63 579.65 210.39 580.94 201.70
  C 582.81 195.22 585.61 188.64 593.50 188.60
  Q 613.88 188.48 634.32 188.51
  Q 637.81 188.52 640.34 190.91
  Q 644.73 195.04 646.25 203.04
  Z"
/>
<path fill="#292929" d="
  M 596.75 297.21
  Q 579.53 299.11 580.93 317.39
  Q 578.81 313.46 580.03 309.51
  Q 580.89 306.74 582.00 304.04
  C 583.91 300.85 585.13 297.87 588.51 297.61
  A 1.04 0.98 20.0 0 0 589.11 297.35
  Q 591.57 295.07 594.83 294.46
  A 1.04 1.03 -33.4 0 1 595.57 294.61
  Q 596.94 295.53 596.75 297.21
  Z"
/>
<path fill="#292929" d="
  M 646.42 319.04
  C 646.17 311.10 643.95 298.73 634.25 297.50
  Q 629.12 296.85 618.00 297.04
  C 622.37 295.59 627.45 297.19 633.11 295.73
  A 1.07 1.06 -41.9 0 1 633.70 295.76
  L 639.56 297.87
  A 1.05 0.99 -6.3 0 1 640.04 298.23
  C 641.30 300.02 643.16 301.65 644.19 303.24
  Q 648.85 310.44 646.42 319.04
  Z"
/>
<path fill="#ffffff" d="
  M 618.00 297.04
  Q 629.12 296.85 634.25 297.50
  C 643.95 298.73 646.17 311.10 646.42 319.04
  L 646.38 330.29
  Q 646.21 340.36 645.97 350.49
  C 645.67 362.69 641.48 369.59 628.56 370.00
  Q 611.32 370.54 594.06 370.15
  Q 592.89 370.13 588.81 368.12
  C 583.49 365.49 580.95 357.29 580.75 351.99
  Q 580.45 344.03 580.93 317.39
  Q 579.53 299.11 596.75 297.21
  L 618.00 297.04
  Z"
/>
<path fill="#000000" d="
  M 582.00 304.04
  Q 580.89 306.74 580.03 309.51
  Q 578.81 313.46 580.93 317.39
  Q 580.45 344.03 580.75 351.99
  C 580.95 357.29 583.49 365.49 588.81 368.12
  Q 592.89 370.13 594.06 370.15
  Q 611.32 370.54 628.56 370.00
  C 641.48 369.59 645.67 362.69 645.97 350.49
  Q 646.21 340.36 646.38 330.29
  Q 647.90 326.49 647.70 322.32
  Q 647.62 320.69 648.95 321.63
  Q 649.88 322.28 650.52 325.26
  A 1.03 1.01 52.4 0 1 650.44 325.91
  C 650.26 326.26 648.93 334.04 651.18 333.02
  A 0.64 0.61 -14.2 0 0 651.56 332.41
  Q 651.37 328.76 651.46 325.14
  Q 651.79 312.07 651.99 325.14
  Q 652.10 332.33 652.07 339.52
  Q 652.07 339.56 652.18 352.49
  C 652.36 375.19 651.79 397.85 652.14 420.56
  C 652.18 423.63 651.73 426.96 651.75 429.73
  Q 652.08 477.99 651.94 526.25
  Q 651.94 526.47 651.86 526.77
  Q 651.24 528.87 650.36 526.87
  Q 649.75 525.52 648.20 524.81
  A 0.99 0.99 0.0 0 0 646.79 525.69
  L 646.71 529.25
  Q 646.01 523.39 642.87 518.61
  Q 641.07 515.87 638.08 514.57
  Q 633.57 512.61 628.50 512.58
  C 619.81 512.51 593.46 510.19 587.53 516.74
  C 585.47 519.00 583.37 520.71 582.25 523.48
  Q 580.19 528.58 580.04 534.25
  L 580.20 526.96
  A 0.99 0.99 0.0 0 0 580.02 526.36
  C 576.81 521.82 577.40 529.11 575.39 528.10
  A 1.02 1.01 7.7 0 1 574.86 527.41
  Q 574.39 525.10 572.58 523.54
  A 1.00 0.99 17.9 0 1 572.24 522.89
  L 571.62 517.37
  A 0.42 0.40 5.7 0 0 571.33 517.03
  L 571.06 516.94
  A 0.45 0.12 89.7 0 1 570.95 516.53
  Q 570.58 504.06 569.28 517.01
  L 569.28 305.25
  L 569.64 308.64
  Q 570.13 313.22 571.21 308.74
  L 571.34 308.21
  A 0.64 0.63 -71.7 0 0 570.97 307.47
  Q 570.38 307.22 570.70 306.41
  Q 571.39 304.59 572.17 306.37
  Q 572.59 307.30 573.28 308.06
  A 1.00 1.00 0.0 0 0 574.68 308.14
  Q 576.26 306.74 578.34 306.71
  A 1.00 0.99 5.8 0 0 579.30 305.93
  Q 579.78 303.73 582.00 304.04
  Z
  M 599.25 406.71
  C 594.19 406.37 586.49 406.59 584.09 412.31
  Q 580.89 419.91 580.92 424.74
  Q 581.04 441.91 581.29 459.07
  C 581.34 463.08 582.44 466.49 583.48 470.29
  C 583.98 472.12 585.04 472.86 586.16 474.28
  C 590.15 479.29 605.43 477.50 611.50 477.54
  C 612.96 477.82 616.81 477.38 616.74 478.35
  A 0.81 0.80 12.1 0 0 617.27 479.16
  Q 622.70 481.13 628.30 479.06
  C 630.18 478.37 633.14 479.50 635.20 479.13
  C 644.22 477.51 647.80 464.97 646.81 456.94
  A 1.14 1.09 -36.5 0 1 646.91 456.36
  C 647.56 455.09 646.95 453.96 646.97 453.09
  Q 647.24 436.79 647.09 420.50
  C 647.06 416.86 645.06 414.75 643.63 411.64
  C 641.80 407.67 637.61 404.41 633.08 404.74
  Q 628.36 405.08 623.61 405.05
  A 1.04 1.02 29.5 0 0 623.09 405.19
  L 622.29 405.67
  Q 622.07 405.81 621.81 405.82
  C 614.17 406.09 606.87 405.98 599.25 406.71
  Z"
/>
<path fill="#ffffff" d="
  M 166.46 407.75
  L 166.00 407.46
  L 165.71 401.97
  A 1.00 0.99 88.5 0 0 164.72 401.02
  L 74.19 400.91
  Q 74.18 400.27 74.50 400.26
  Q 120.23 399.68 165.98 400.37
  A 1.00 0.99 88.1 0 1 166.96 401.29
  Q 167.21 404.49 166.46 407.75
  Z"
/>
<path fill="#292929" d="
  M 611.50 477.54
  L 635.51 477.14
  Q 638.23 477.10 640.02 474.94
  C 641.25 473.45 642.77 472.11 643.45 470.02
  Q 645.39 464.01 645.44 462.18
  Q 645.99 444.25 645.69 426.31
  C 645.60 420.56 644.54 414.18 640.61 409.74
  C 637.78 406.53 633.89 406.85 629.75 407.00
  Q 622.97 407.24 599.25 406.71
  C 606.87 405.98 614.17 406.09 621.81 405.82
  Q 622.07 405.81 622.29 405.67
  L 623.09 405.19
  A 1.04 1.02 29.5 0 1 623.61 405.05
  Q 628.36 405.08 633.08 404.74
  C 637.61 404.41 641.80 407.67 643.63 411.64
  C 645.06 414.75 647.06 416.86 647.09 420.50
  Q 647.24 436.79 646.97 453.09
  C 646.95 453.96 647.56 455.09 646.91 456.36
  A 1.14 1.09 -36.5 0 0 646.81 456.94
  C 647.80 464.97 644.22 477.51 635.20 479.13
  C 633.14 479.50 630.18 478.37 628.30 479.06
  Q 622.70 481.13 617.27 479.16
  A 0.81 0.80 12.1 0 1 616.74 478.35
  C 616.81 477.38 612.96 477.82 611.50 477.54
  Z"
/>
<path fill="#ffffff" d="
  M 599.25 406.71
  Q 622.97 407.24 629.75 407.00
  C 633.89 406.85 637.78 406.53 640.61 409.74
  C 644.54 414.18 645.60 420.56 645.69 426.31
  Q 645.99 444.25 645.44 462.18
  Q 645.39 464.01 643.45 470.02
  C 642.77 472.11 641.25 473.45 640.02 474.94
  Q 638.23 477.10 635.51 477.14
  L 611.50 477.54
  C 605.43 477.50 590.15 479.29 586.16 474.28
  C 585.04 472.86 583.98 472.12 583.48 470.29
  C 582.44 466.49 581.34 463.08 581.29 459.07
  Q 581.04 441.91 580.92 424.74
  Q 580.89 419.91 584.09 412.31
  C 586.49 406.59 594.19 406.37 599.25 406.71
  Z"
/>
<path fill="#909090" d="
  M 166.00 407.46
  L 166.46 407.75
  L 165.46 409.75
  L 165.04 409.75
  L 166.00 407.46
  Z"
/>
<path fill="#292929" d="
  M 165.04 409.75
  L 165.46 409.75
  L 128.09 460.04
  L 165.04 409.75
  Z"
/>
<path fill="#ffffff" d="
  M 189.01 472.36
  A 1.00 0.99 -67.5 0 1 188.36 470.79
  L 205.61 447.15
  A 1.00 1.00 0.0 0 1 207.15 447.06
  L 229.74 471.37
  Q 231.31 473.07 229.00 473.05
  Q 213.51 472.95 196.50 472.96
  Q 192.80 472.96 189.01 472.36
  Z"
/>
<path fill="#292929" d="
  M 123.59 466.08
  Q 120.86 470.82 117.29 475.00
  L 117.00 474.71
  L 123.59 466.08
  Z"
/>
<path fill="#292929" d="
  M 117.00 474.71
  L 117.29 475.00
  Q 107.31 488.77 97.18 502.43
  Q 97.05 502.61 96.57 502.33
  L 117.00 474.71
  Z"
/>
<path fill="#ffffff" d="
  M 166.02 667.80
  L 165.97 502.22
  C 166.67 500.78 166.99 502.86 166.99 503.21
  Q 167.01 585.17 167.00 667.14
  A 0.65 0.64 -1.9 0 1 166.39 667.78
  L 166.02 667.80
  Z"
/>
<path fill="#292929" d="
  M 161.00 507.79
  L 159.29 510.25
  Q 159.23 508.39 161.00 507.79
  Z"
/>
<path fill="#292929" d="
  M 236.29 580.81
  L 241.42 575.99
  Q 241.59 575.83 241.67 575.61
  Q 243.78 570.00 243.95 563.25
  Q 244.46 543.06 244.06 527.29
  C 243.95 522.57 241.83 514.37 236.51 512.73
  Q 231.64 511.24 226.50 511.26
  Q 214.35 511.33 202.20 510.84
  C 187.81 510.27 181.00 514.60 181.05 530.00
  Q 181.11 546.87 181.29 563.75
  Q 181.34 568.25 183.24 573.82
  C 184.31 576.94 187.10 578.72 189.46 580.89
  Q 186.94 580.97 184.99 579.52
  C 182.36 577.57 179.86 571.06 179.60 567.83
  C 178.44 553.46 179.41 538.79 179.00 524.32
  C 178.91 520.94 182.27 515.18 185.63 513.24
  C 187.46 512.18 188.80 510.54 190.80 509.76
  C 193.69 508.64 197.51 510.10 200.00 509.49
  C 205.50 508.15 212.56 508.20 216.49 507.89
  C 225.06 507.23 233.09 506.91 239.70 511.35
  A 1.01 0.99 -79.0 0 1 240.12 511.99
  Q 240.50 513.98 242.32 514.70
  Q 244.78 515.66 244.31 517.94
  Q 243.79 520.43 245.38 522.63
  A 0.94 0.92 26.9 0 1 245.57 523.19
  Q 246.07 541.25 245.96 559.34
  Q 245.96 560.18 246.27 565.04
  C 246.57 569.78 244.11 573.67 242.53 577.75
  Q 242.13 578.76 239.68 580.44
  Q 238.02 581.58 236.29 580.81
  Z"
/>
<path fill="#ffffff" d="
  M 236.29 580.81
  C 220.87 581.34 204.80 582.20 189.46 580.89
  C 187.10 578.72 184.31 576.94 183.24 573.82
  Q 181.34 568.25 181.29 563.75
  Q 181.11 546.87 181.05 530.00
  C 181.00 514.60 187.81 510.27 202.20 510.84
  Q 214.35 511.33 226.50 511.26
  Q 231.64 511.24 236.51 512.73
  C 241.83 514.37 243.95 522.57 244.06 527.29
  Q 244.46 543.06 243.95 563.25
  Q 243.78 570.00 241.67 575.61
  Q 241.59 575.83 241.42 575.99
  L 236.29 580.81
  Z"
/>
<path fill="#292929" d="
  M 646.71 529.25
  Q 646.49 549.88 646.51 570.50
  Q 646.52 572.73 643.73 577.51
  Q 645.79 555.21 644.78 532.82
  C 644.42 524.71 641.90 516.56 632.43 516.31
  Q 613.69 515.81 594.94 515.86
  C 585.96 515.89 581.99 524.91 582.00 532.62
  Q 582.01 549.93 581.98 567.25
  Q 581.97 572.16 584.39 579.89
  A 1.01 1.01 0.0 0 0 584.77 580.42
  Q 587.35 582.22 589.47 585.46
  Q 587.53 585.27 586.70 583.71
  A 1.03 1.00 88.5 0 0 586.28 583.30
  C 579.94 580.01 580.42 571.04 580.32 563.88
  Q 580.11 549.06 580.04 534.25
  Q 580.19 528.58 582.25 523.48
  C 583.37 520.71 585.47 519.00 587.53 516.74
  C 593.46 510.19 619.81 512.51 628.50 512.58
  Q 633.57 512.61 638.08 514.57
  Q 641.07 515.87 642.87 518.61
  Q 646.01 523.39 646.71 529.25
  Z"
/>
<path fill="#292929" d="
  M 89.11 512.77
  Q 85.03 519.51 80.06 525.63
  A 0.33 0.33 0.0 0 1 79.75 525.75
  L 79.50 525.71
  L 89.11 512.77
  Z"
/>
<path fill="#ffffff" d="
  M 643.73 577.51
  Q 640.33 585.62 632.44 585.95
  Q 616.00 586.65 589.47 585.46
  Q 587.35 582.22 584.77 580.42
  A 1.01 1.01 0.0 0 1 584.39 579.89
  Q 581.97 572.16 581.98 567.25
  Q 582.01 549.93 582.00 532.62
  C 581.99 524.91 585.96 515.89 594.94 515.86
  Q 613.69 515.81 632.43 516.31
  C 641.90 516.56 644.42 524.71 644.78 532.82
  Q 645.79 555.21 643.73 577.51
  Z"
/>
<path fill="#292929" d="
  M 150.00 522.79
  L 148.50 524.79
  Q 148.31 523.12 150.00 522.79
  Z"
/>
<path fill="#292929" d="
  M 147.25 526.54
  L 143.10 531.98
  Q 144.58 529.31 146.33 526.83
  Q 146.65 526.36 147.25 526.54
  Z"
/>
<path fill="#292929" d="
  M 78.54 526.75
  Q 78.72 526.64 78.88 526.81
  A 0.27 0.27 0.0 0 1 78.92 527.14
  Q 75.16 532.78 70.57 537.77
  L 78.54 526.75
  Z"
/>
<path fill="#292929" d="
  M 136.25 541.54
  L 134.29 544.00
  Q 134.41 542.07 136.25 541.54
  Z"
/>
<path fill="#292929" d="
  M 133.25 545.54
  L 131.50 547.79
  Q 131.42 545.97 133.25 545.54
  Z"
/>
<path fill="#292929" d="
  M 64.08 546.74
  Q 62.27 550.65 59.19 553.63
  Q 61.14 549.84 64.08 546.74
  Z"
/>
<path fill="#292929" d="
  M 59.50 554.79
  Q 61.42 554.91 62.00 556.71
  L 59.50 554.79
  Z"
/>
<path fill="#292929" d="
  M 67.00 560.54
  Q 68.91 560.42 69.46 562.25
  L 67.00 560.54
  Z"
/>
<path fill="#292929" d="
  M 122.21 560.75
  L 120.50 562.79
  Q 120.38 561.01 122.21 560.75
  Z"
/>
<path fill="#292929" d="
  M 71.00 563.29
  C 72.09 563.03 78.86 568.88 80.05 569.90
  Q 75.13 567.09 71.00 563.29
  Z"
/>
<path fill="#292929" d="
  M 119.21 564.75
  L 117.29 567.25
  Q 117.26 565.20 119.21 564.75
  Z"
/>
<path fill="#292929" d="
  M 86.00 574.54
  Q 87.91 574.42 88.46 576.25
  L 86.00 574.54
  Z"
/>
<path fill="#292929" d="
  M 89.75 577.29
  Q 91.78 577.33 92.46 579.25
  L 89.75 577.29
  Z"
/>
<path fill="#292929" d="
  M 108.00 579.79
  L 106.46 582.00
  Q 106.35 580.33 108.00 579.79
  Z"
/>
<path fill="#292929" d="
  M 93.75 580.29
  Q 95.94 580.53 96.96 582.50
  L 93.75 580.29
  Z"
/>
<path fill="#292929" d="
  M 252.25 660.00
  L 252.25 664.21
  L 252.04 664.36
  A 0.41 0.35 22.5 0 1 251.80 664.44
  L 174.25 664.21
  Q 172.89 661.83 169.94 662.56
  Q 169.55 660.39 171.26 660.49
  Q 175.91 660.78 178.76 660.41
  A 1.00 0.99 88.6 0 0 179.63 659.49
  C 180.14 652.66 179.65 645.48 179.66 638.60
  Q 179.68 631.69 180.91 628.49
  C 183.83 620.92 192.27 617.15 200.08 618.14
  C 210.45 619.47 221.85 618.37 232.38 618.58
  C 236.36 618.66 240.27 622.35 242.78 625.12
  A 1.02 1.01 19.4 0 1 243.03 625.63
  Q 243.71 630.00 245.85 633.98
  Q 245.96 634.20 245.96 634.45
  C 245.97 641.79 246.27 649.25 245.70 656.57
  Q 245.24 662.39 252.25 660.00
  Z
  M 182.96 660.52
  C 190.96 660.99 199.93 660.22 206.77 660.25
  Q 224.23 660.31 242.47 659.98
  A 1.00 0.99 -89.7 0 0 243.45 659.00
  Q 243.66 648.22 243.34 636.72
  C 243.25 633.34 242.25 630.19 241.53 626.87
  A 1.07 1.01 -73.7 0 0 241.29 626.40
  L 238.23 623.12
  A 1.01 0.96 -15.0 0 0 237.68 622.82
  C 235.33 622.39 233.02 621.49 230.67 621.50
  Q 214.85 621.58 199.03 621.37
  C 196.23 621.33 189.70 621.55 188.23 622.45
  C 182.72 625.78 182.00 632.89 182.00 638.51
  Q 181.99 649.18 182.02 659.53
  A 0.99 0.99 0.0 0 0 182.96 660.52
  Z"
/>
<path fill="#ffffff" d="
  M 182.96 660.52
  A 0.99 0.99 0.0 0 1 182.02 659.53
  Q 181.99 649.18 182.00 638.51
  C 182.00 632.89 182.72 625.78 188.23 622.45
  C 189.70 621.55 196.23 621.33 199.03 621.37
  Q 214.85 621.58 230.67 621.50
  C 233.02 621.49 235.33 622.39 237.68 622.82
  A 1.01 0.96 -15.0 0 1 238.23 623.12
  L 241.29 626.40
  A 1.07 1.01 -73.7 0 1 241.53 626.87
  C 242.25 630.19 243.25 633.34 243.34 636.72
  Q 243.66 648.22 243.45 659.00
  A 1.00 0.99 -89.7 0 1 242.47 659.98
  Q 224.23 660.31 206.77 660.25
  C 199.93 660.22 190.96 660.99 182.96 660.52
  Z"
/>
<path fill="#292929" d="
  M 642.00 664.46
  Q 645.43 663.69 643.55 659.93
  C 644.53 648.39 644.62 640.36 641.92 631.32
  Q 641.05 628.40 638.78 627.69
  C 635.21 626.58 632.08 626.19 628.02 626.24
  Q 614.14 626.40 600.25 626.23
  C 590.75 626.11 585.58 625.87 583.46 636.75
  C 583.09 635.11 582.36 633.79 582.76 632.12
  Q 584.56 624.73 590.91 623.61
  Q 591.08 623.58 601.49 623.72
  Q 615.69 623.91 629.90 623.80
  C 631.97 623.78 633.85 624.45 635.95 624.63
  C 646.63 625.56 645.06 640.71 646.13 641.06
  Q 646.78 652.01 646.27 662.96
  A 1.02 1.02 0.0 0 1 645.79 663.77
  Q 644.05 664.81 642.00 664.46
  Z"
/>
<path fill="#ffffff" d="
  M 643.55 659.93
  L 583.04 659.75
  L 582.93 640.26
  L 583.46 636.75
  C 585.58 625.87 590.75 626.11 600.25 626.23
  Q 614.14 626.40 628.02 626.24
  C 632.08 626.19 635.21 626.58 638.78 627.69
  Q 641.05 628.40 641.92 631.32
  C 644.62 640.36 644.53 648.39 643.55 659.93
  Z"
/>
<path fill="#292929" d="
  M 582.93 640.26
  L 583.04 659.75
  Q 581.37 662.29 583.48 664.23
  Q 582.30 664.47 581.22 663.98
  A 1.00 0.99 -78.3 0 1 580.64 663.09
  L 580.31 650.77
  A 1.04 1.03 -24.4 0 1 580.59 650.04
  L 581.40 649.21
  A 1.00 0.98 -27.8 0 0 581.67 648.36
  Q 581.02 644.05 582.93 640.26
  Z"
/>
<path fill="#909090" d="
  M 569.21 658.50
  L 569.55 662.19
  Q 569.79 664.79 566.58 664.64
  Q 555.42 664.11 544.94 664.25
  C 460.33 665.43 375.54 664.52 290.92 664.48
  C 290.50 664.48 253.11 664.87 252.25 664.21
  L 252.25 660.00
  L 568.03 659.94
  A 1.01 0.99 -81.2 0 0 568.98 659.23
  L 569.21 658.50
  Z"
/>
<path fill="#909090" d="
  M 583.04 659.75
  L 643.55 659.93
  Q 645.43 663.69 642.00 664.46
  L 583.48 664.23
  Q 581.37 662.29 583.04 659.75
  Z"
/>
<path fill="#ffffff" d="
  M 174.25 664.21
  Q 170.65 665.87 169.94 662.56
  Q 172.89 661.83 174.25 664.21
  Z"
/>
<path fill="#ffffff" d="
  M 194.96 669.00
  L 195.25 669.29
  Q 195.50 669.41 195.65 669.62
  A 0.65 0.64 -49.9 0 1 195.70 670.23
  C 194.61 672.80 194.84 675.57 194.35 677.84
  C 192.19 687.81 191.57 692.68 196.13 701.43
  Q 196.88 702.88 198.37 703.51
  Q 198.79 703.69 199.14 704.58
  A 1.00 1.00 0.0 0 0 199.71 705.15
  Q 208.57 708.55 217.24 708.73
  Q 243.06 709.30 261.19 708.63
  Q 276.92 708.05 288.31 708.32
  C 289.10 708.34 290.33 708.78 288.50 709.46
  Q 254.88 710.19 221.25 709.94
  Q 211.07 709.86 201.29 707.18
  C 198.53 706.42 197.53 704.88 195.61 702.97
  C 189.10 696.51 191.88 681.17 193.69 674.75
  Q 194.66 671.35 192.75 669.21
  Q 193.77 668.70 194.96 669.00
  Z"
/>
<path fill="#292929" d="
  M 653.49 669.38
  L 652.92 671.11
  A 1.00 1.00 0.0 0 1 651.74 671.77
  Q 647.66 670.80 645.01 671.26
  C 640.83 672.00 638.52 671.78 634.89 671.78
  Q 614.45 671.77 594.01 671.97
  Q 587.42 672.04 564.25 669.29
  C 571.67 668.55 577.66 669.67 584.16 669.48
  C 599.87 669.05 614.51 669.66 624.56 669.33
  C 630.51 669.14 636.92 668.88 642.57 669.50
  Q 648.04 670.11 653.49 669.38
  Z"
/>
<path fill="#ffffff" d="
  M 568.00 709.96
  L 310.75 709.96
  C 309.98 709.68 309.14 709.92 308.53 709.56
  C 307.71 709.07 308.97 708.75 309.32 708.75
  Q 438.30 708.75 567.28 708.75
  C 568.02 708.75 568.51 709.23 568.00 709.96
  Z"
/>
</svg>
